<svg width="414" height="415" viewBox="0 0 414 415" fill="none" xmlns="http://www.w3.org/2000/svg">
<g filter="url(#filter0_d_0_1)">
<path d="M4 203.344C4 91.23 94.8862 0.343842 207 0.343842V0.343842C319.114 0.343842 410 91.23 410 203.344V203.344C410 315.458 319.114 406.344 207 406.344V406.344C94.8862 406.344 4 315.458 4 203.344V203.344Z" fill="url(#paint0_linear_0_1)"/>
<path d="M207 405.844C95.1623 405.844 4.5 315.181 4.5 203.344C4.5 91.5062 95.1623 0.843842 207 0.843842C318.838 0.843842 409.5 91.5062 409.5 203.344C409.5 315.181 318.838 405.844 207 405.844Z" stroke="url(#paint1_linear_0_1)"/>
</g>
<path d="M33 200V201.286H31.7143V200H33ZM33 198.714V200H31.7143V198.714H33ZM31.7143 198.714V200H30.4286V198.714H31.7143ZM31.7143 200V201.286H30.4286V200H31.7143ZM31.7143 201.286V202.571H30.4286V201.286H31.7143ZM31.7143 202.571V203.857H30.4286V202.571H31.7143ZM31.7143 203.857V205.143H30.4286V203.857H31.7143ZM33 203.857V205.143H31.7143V203.857H33ZM33 202.571V203.857H31.7143V202.571H33ZM33 201.286V202.571H31.7143V201.286H33ZM33 205.143V206.429H31.7143V205.143H33ZM31.7143 205.143V206.429H30.4286V205.143H31.7143ZM31.7143 206.429V207.714H30.4286V206.429H31.7143ZM31.7143 207.714V209H30.4286V207.714H31.7143ZM33 207.714V209H31.7143V207.714H33ZM33 206.429V207.714H31.7143V206.429H33ZM26.5714 207.714V209H25.2857V207.714H26.5714ZM25.2857 206.429V207.714H24V206.429H25.2857ZM25.2857 205.143V206.429H24V205.143H25.2857ZM25.2857 203.857V205.143H24V203.857H25.2857ZM25.2857 202.571V203.857H24V202.571H25.2857ZM25.2857 201.286V202.571H24V201.286H25.2857ZM25.2857 200V201.286H24V200H25.2857ZM26.5714 202.571V203.857H25.2857V202.571H26.5714ZM26.5714 203.857V205.143H25.2857V203.857H26.5714ZM26.5714 205.143V206.429H25.2857V205.143H26.5714ZM26.5714 206.429V207.714H25.2857V206.429H26.5714ZM26.5714 201.286V202.571H25.2857V201.286H26.5714ZM27.8571 200V201.286H26.5714V200H27.8571ZM27.8571 198.714V200H26.5714V198.714H27.8571ZM26.5714 198.714V200H25.2857V198.714H26.5714ZM26.5714 200V201.286H25.2857V200H26.5714ZM29.1429 198.714V200H27.8571V198.714H29.1429ZM33 196.143V197.429H31.7143V196.143H33ZM31.7143 196.143V197.429H30.4286V196.143H31.7143ZM31.7143 197.429V198.714H30.4286V197.429H31.7143ZM33 197.429V198.714H31.7143V197.429H33ZM29.1429 207.714V209H27.8571V207.714H29.1429ZM27.8571 207.714V209H26.5714V207.714H27.8571ZM27.8571 206.429V207.714H26.5714V206.429H27.8571ZM29.1429 206.429V207.714H27.8571V206.429H29.1429ZM30.4286 206.429V207.714H29.1429V206.429H30.4286ZM30.4286 198.714V200H29.1429V198.714H30.4286ZM30.4286 200V201.286H29.1429V200H30.4286ZM29.1429 200V201.286H27.8571V200H29.1429ZM43.2891 207.714H42.0033V206.429H43.2891V207.714ZM43.2891 209H42.0033V207.714H43.2891V209ZM42.0033 209H40.7176V207.714H42.0033V209ZM42.0033 207.714H40.7176V206.429H42.0033V207.714ZM42.0033 206.429H40.7176V205.143H42.0033V206.429ZM42.0033 205.143H40.7176V203.857H42.0033V205.143ZM42.0033 203.857H40.7176V202.571H42.0033V203.857ZM43.2891 203.857H42.0033V202.571H43.2891V203.857ZM43.2891 205.143H42.0033V203.857H43.2891V205.143ZM43.2891 206.429H42.0033V205.143H43.2891V206.429ZM43.2891 202.571H42.0033V201.286H43.2891V202.571ZM42.0033 202.571H40.7176V201.286H42.0033V202.571ZM42.0033 201.286H40.7176V200H42.0033V201.286ZM42.0033 200H40.7176V198.714H42.0033V200ZM43.2891 200H42.0033V198.714H43.2891V200ZM43.2891 201.286H42.0033V200H43.2891V201.286ZM36.8605 200H35.5748V198.714H36.8605V200ZM35.5748 200H34.2891V198.714H35.5748V200ZM35.5748 201.286H34.2891V200H35.5748V201.286ZM35.5748 202.571H34.2891V201.286H35.5748V202.571ZM35.5748 203.857H34.2891V202.571H35.5748V203.857ZM35.5748 205.143H34.2891V203.857H35.5748V205.143ZM35.5748 206.429H34.2891V205.143H35.5748V206.429ZM35.5748 207.714H34.2891V206.429H35.5748V207.714ZM36.8605 205.143H35.5748V203.857H36.8605V205.143ZM36.8605 203.857H35.5748V202.571H36.8605V203.857ZM36.8605 202.571H35.5748V201.286H36.8605V202.571ZM36.8605 201.286H35.5748V200H36.8605V201.286ZM36.8605 206.429H35.5748V205.143H36.8605V206.429ZM40.7176 207.714H39.4319V206.429H40.7176V207.714ZM39.4319 207.714H38.1462V206.429H39.4319V207.714ZM38.1462 207.714H36.8605V206.429H38.1462V207.714ZM38.1462 209H36.8605V207.714H38.1462V209ZM36.8605 209H35.5748V207.714H36.8605V209ZM36.8605 207.714H35.5748V206.429H36.8605V207.714ZM39.4319 209H38.1462V207.714H39.4319V209ZM44.5781 196.143H45.8638V197.429H44.5781V196.143ZM45.8638 196.143H47.1496V197.429H45.8638V196.143ZM45.8638 197.429H47.1496V198.714H45.8638V197.429ZM45.8638 198.714H47.1496V200H45.8638V198.714ZM45.8638 200H47.1496V201.286H45.8638V200ZM44.5781 200H45.8638V201.286H44.5781V200ZM44.5781 198.714H45.8638V200H44.5781V198.714ZM44.5781 197.429H45.8638V198.714H44.5781V197.429ZM44.5781 201.286H45.8638V202.571H44.5781V201.286ZM44.5781 202.571H45.8638V203.857H44.5781V202.571ZM44.5781 203.857H45.8638V205.143H44.5781V203.857ZM44.5781 205.143H45.8638V206.429H44.5781V205.143ZM44.5781 206.429H45.8638V207.714H44.5781V206.429ZM44.5781 207.714H45.8638V209H44.5781V207.714ZM45.8638 207.714H47.1496V209H45.8638V207.714ZM45.8638 206.429H47.1496V207.714H45.8638V206.429ZM45.8638 205.143H47.1496V206.429H45.8638V205.143ZM45.8638 203.857H47.1496V205.143H45.8638V203.857ZM45.8638 202.571H47.1496V203.857H45.8638V202.571ZM45.8638 201.286H47.1496V202.571H45.8638V201.286ZM47.1496 202.571H48.4353V203.857H47.1496V202.571ZM48.4353 202.571H49.721V203.857H48.4353V202.571ZM48.4353 201.286H49.721V202.571H48.4353V201.286ZM49.721 201.286H51.0067V202.571H49.721V201.286ZM49.721 200H51.0067V201.286H49.721V200ZM49.721 198.714H51.0067V200H49.721V198.714ZM51.0067 198.714H52.2924V200H51.0067V198.714ZM51.0067 200H52.2924V201.286H51.0067V200ZM48.4353 203.857H49.721V205.143H48.4353V203.857ZM49.721 203.857H51.0067V205.143H49.721V203.857ZM51.0067 205.143H52.2924V206.429H51.0067V205.143ZM49.721 205.143H51.0067V206.429H49.721V205.143ZM49.721 206.429H51.0067V207.714H49.721V206.429ZM51.0067 206.429H52.2924V207.714H51.0067V206.429ZM51.0067 207.714H52.2924V209H51.0067V207.714ZM49.721 207.714H51.0067V209H49.721V207.714ZM56.1496 198.714H57.4353V200H56.1496V198.714ZM54.8638 198.714H56.1496V200H54.8638V198.714ZM54.8638 200H56.1496V201.286H54.8638V200ZM56.1496 200H57.4353V201.286H56.1496V200ZM57.4353 198.714H58.721V200H57.4353V198.714ZM58.721 198.714H60.0067V200H58.721V198.714ZM60.0067 198.714H61.2924V200H60.0067V198.714ZM60.0067 200H61.2924V201.286H60.0067V200ZM58.721 200H60.0067V201.286H58.721V200ZM61.2924 200H62.5781V201.286H61.2924V200ZM61.2924 201.286H62.5781V202.571H61.2924V201.286ZM61.2924 206.429H62.5781V207.714H61.2924V206.429ZM60.0067 206.429H61.2924V207.714H60.0067V206.429ZM60.0067 201.286H61.2924V202.571H60.0067V201.286ZM58.721 206.429H60.0067V207.714H58.721V206.429ZM60.0067 207.714H61.2924V209H60.0067V207.714ZM58.721 207.714H60.0067V209H58.721V207.714ZM57.4353 207.714H58.721V209H57.4353V207.714ZM56.1496 207.714H57.4353V209H56.1496V207.714ZM54.8638 207.714H56.1496V209H54.8638V207.714ZM54.8638 206.429H56.1496V207.714H54.8638V206.429ZM56.1496 206.429H57.4353V207.714H56.1496V206.429ZM54.8638 205.143H56.1496V206.429H54.8638V205.143ZM53.5781 206.429H54.8638V207.714H53.5781V206.429ZM53.5781 205.143H54.8638V206.429H53.5781V205.143ZM53.5781 203.857H54.8638V205.143H53.5781V203.857ZM53.5781 202.571H54.8638V203.857H53.5781V202.571ZM53.5781 201.286H54.8638V202.571H53.5781V201.286ZM53.5781 200H54.8638V201.286H53.5781V200ZM54.8638 201.286H56.1496V202.571H54.8638V201.286ZM54.8638 202.571H56.1496V203.857H54.8638V202.571ZM54.8638 203.857H56.1496V205.143H54.8638V203.857ZM57.4353 206.429H58.721V207.714H57.4353V206.429ZM57.4353 200H58.721V201.286H57.4353V200ZM60.0067 202.571H61.2924V203.857H60.0067V202.571ZM61.2924 202.571H62.5781V203.857H61.2924V202.571ZM56.1496 203.857H57.4353V205.143H56.1496V203.857ZM57.4353 203.857H58.721V205.143H57.4353V203.857ZM58.721 203.857H60.0067V205.143H58.721V203.857ZM60.0067 203.857H61.2924V205.143H60.0067V203.857ZM61.2924 203.857H62.5781V205.143H61.2924V203.857ZM58.721 202.571H60.0067V203.857H58.721V202.571ZM57.4353 202.571H58.721V203.857H57.4353V202.571ZM56.1496 202.571H57.4353V203.857H56.1496V202.571ZM63.8672 201.286H65.1529V202.571H63.8672V201.286ZM65.1529 201.286H66.4386V202.571H65.1529V201.286ZM66.4386 201.286H67.7243V202.571H66.4386V201.286ZM67.7243 201.286H69.01V202.571H67.7243V201.286ZM69.01 201.286H70.2958V202.571H69.01V201.286ZM70.2958 201.286H71.5815V202.571H70.2958V201.286ZM70.2958 202.571H71.5815V203.857H70.2958V202.571ZM69.01 202.571H70.2958V203.857H69.01V202.571ZM67.7243 202.571H69.01V203.857H67.7243V202.571ZM66.4386 202.571H67.7243V203.857H66.4386V202.571ZM65.1529 202.571H66.4386V203.857H65.1529V202.571ZM63.8672 202.571H65.1529V203.857H63.8672V202.571ZM74.1529 196.143H76.7243V198.714H74.1529V196.143ZM72.8672 209H74.1529V200H76.7243V210.286H75.4386V211.571H72.8672V209ZM80.5714 198.714H81.8571V200H80.5714V198.714ZM79.2857 198.714H80.5714V200H79.2857V198.714ZM79.2857 200H80.5714V201.286H79.2857V200ZM80.5714 200H81.8571V201.286H80.5714V200ZM81.8571 198.714H83.1429V200H81.8571V198.714ZM83.1429 198.714H84.4286V200H83.1429V198.714ZM84.4286 198.714H85.7143V200H84.4286V198.714ZM84.4286 200H85.7143V201.286H84.4286V200ZM83.1429 200H84.4286V201.286H83.1429V200ZM85.7143 200H87V201.286H85.7143V200ZM85.7143 201.286H87V202.571H85.7143V201.286ZM85.7143 206.429H87V207.714H85.7143V206.429ZM84.4286 206.429H85.7143V207.714H84.4286V206.429ZM84.4286 201.286H85.7143V202.571H84.4286V201.286ZM83.1429 206.429H84.4286V207.714H83.1429V206.429ZM84.4286 207.714H85.7143V209H84.4286V207.714ZM83.1429 207.714H84.4286V209H83.1429V207.714ZM81.8571 207.714H83.1429V209H81.8571V207.714ZM80.5714 207.714H81.8571V209H80.5714V207.714ZM79.2857 207.714H80.5714V209H79.2857V207.714ZM79.2857 206.429H80.5714V207.714H79.2857V206.429ZM80.5714 206.429H81.8571V207.714H80.5714V206.429ZM79.2857 205.143H80.5714V206.429H79.2857V205.143ZM78 206.429H79.2857V207.714H78V206.429ZM78 205.143H79.2857V206.429H78V205.143ZM78 203.857H79.2857V205.143H78V203.857ZM78 202.571H79.2857V203.857H78V202.571ZM78 201.286H79.2857V202.571H78V201.286ZM78 200H79.2857V201.286H78V200ZM79.2857 201.286H80.5714V202.571H79.2857V201.286ZM79.2857 202.571H80.5714V203.857H79.2857V202.571ZM79.2857 203.857H80.5714V205.143H79.2857V203.857ZM81.8571 206.429H83.1429V207.714H81.8571V206.429ZM81.8571 200H83.1429V201.286H81.8571V200ZM84.4286 202.571H85.7143V203.857H84.4286V202.571ZM85.7143 202.571H87V203.857H85.7143V202.571ZM80.5714 203.857H81.8571V205.143H80.5714V203.857ZM81.8571 203.857H83.1429V205.143H81.8571V203.857ZM83.1429 203.857H84.4286V205.143H83.1429V203.857ZM84.4286 203.857H85.7143V205.143H84.4286V203.857ZM85.7143 203.857H87V205.143H85.7143V203.857ZM83.1429 202.571H84.4286V203.857H83.1429V202.571ZM81.8571 202.571H83.1429V203.857H81.8571V202.571ZM80.5714 202.571H81.8571V203.857H80.5714V202.571ZM96.0033 209H94.7176V207.714H96.0033V209ZM96.0033 207.714H94.7176V206.429H96.0033V207.714ZM94.7176 207.714H93.4319V206.429H94.7176V207.714ZM93.4319 209H92.1462V207.714H93.4319V209ZM92.1462 209H90.8605V207.714H92.1462V209ZM90.8605 209H89.5748V207.714H90.8605V209ZM90.8605 207.714H89.5748V206.429H90.8605V207.714ZM92.1462 207.714H90.8605V206.429H92.1462V207.714ZM89.5748 207.714H88.2891V206.429H89.5748V207.714ZM89.5748 206.429H88.2891V205.143H89.5748V206.429ZM89.5748 201.286H88.2891V200H89.5748V201.286ZM90.8605 201.286H89.5748V200H90.8605V201.286ZM90.8605 206.429H89.5748V205.143H90.8605V206.429ZM92.1462 201.286H90.8605V200H92.1462V201.286ZM90.8605 200H89.5748V198.714H90.8605V200ZM92.1462 200H90.8605V198.714H92.1462V200ZM93.4319 200H92.1462V198.714H93.4319V200ZM94.7176 200H93.4319V198.714H94.7176V200ZM96.0033 200H94.7176V198.714H96.0033V200ZM96.0033 201.286H94.7176V200H96.0033V201.286ZM94.7176 201.286H93.4319V200H94.7176V201.286ZM96.0033 202.571H94.7176V201.286H96.0033V202.571ZM97.2891 201.286H96.0033V200H97.2891V201.286ZM97.2891 202.571H96.0033V201.286H97.2891V202.571ZM97.2891 203.857H96.0033V202.571H97.2891V203.857ZM97.2891 205.143H96.0033V203.857H97.2891V205.143ZM97.2891 206.429H96.0033V205.143H97.2891V206.429ZM97.2891 207.714H96.0033V206.429H97.2891V207.714ZM96.0033 206.429H94.7176V205.143H96.0033V206.429ZM96.0033 205.143H94.7176V203.857H96.0033V205.143ZM96.0033 203.857H94.7176V202.571H96.0033V203.857ZM93.4319 201.286H92.1462V200H93.4319V201.286ZM93.4319 207.714H92.1462V206.429H93.4319V207.714ZM96.0033 207.714H97.2891V209H96.0033V207.714ZM93.4319 202.571H94.7176V203.857H93.4319V202.571ZM92.1462 202.571H93.4319V203.857H92.1462V202.571ZM90.8605 202.571H92.1462V203.857H90.8605V202.571ZM89.5748 202.571H90.8605V203.857H89.5748V202.571ZM88.2891 203.857H89.5748V205.143H88.2891V203.857ZM89.5748 203.857H90.8605V205.143H89.5748V203.857ZM93.4319 203.857H94.7176V205.143H93.4319V203.857ZM92.1462 203.857H93.4319V205.143H92.1462V203.857ZM90.8605 203.857H92.1462V205.143H90.8605V203.857ZM98.5781 200H99.8638V201.286H98.5781V200ZM98.5781 198.714H99.8638V200H98.5781V198.714ZM99.8638 198.714H101.15V200H99.8638V198.714ZM99.8638 200H101.15V201.286H99.8638V200ZM99.8638 201.286H101.15V202.571H99.8638V201.286ZM99.8638 202.571H101.15V203.857H99.8638V202.571ZM99.8638 203.857H101.15V205.143H99.8638V203.857ZM98.5781 203.857H99.8638V205.143H98.5781V203.857ZM98.5781 202.571H99.8638V203.857H98.5781V202.571ZM98.5781 201.286H99.8638V202.571H98.5781V201.286ZM98.5781 205.143H99.8638V206.429H98.5781V205.143ZM99.8638 205.143H101.15V206.429H99.8638V205.143ZM99.8638 206.429H101.15V207.714H99.8638V206.429ZM99.8638 207.714H101.15V209H99.8638V207.714ZM98.5781 207.714H99.8638V209H98.5781V207.714ZM98.5781 206.429H99.8638V207.714H98.5781V206.429ZM105.007 207.714H106.292V209H105.007V207.714ZM106.292 207.714H107.578V209H106.292V207.714ZM106.292 206.429H107.578V207.714H106.292V206.429ZM106.292 205.143H107.578V206.429H106.292V205.143ZM106.292 203.857H107.578V205.143H106.292V203.857ZM106.292 202.571H107.578V203.857H106.292V202.571ZM106.292 201.286H107.578V202.571H106.292V201.286ZM106.292 200H107.578V201.286H106.292V200ZM105.007 202.571H106.292V203.857H105.007V202.571ZM105.007 203.857H106.292V205.143H105.007V203.857ZM105.007 205.143H106.292V206.429H105.007V205.143ZM105.007 206.429H106.292V207.714H105.007V206.429ZM105.007 201.286H106.292V202.571H105.007V201.286ZM101.15 200H102.435V201.286H101.15V200ZM102.435 200H103.721V201.286H102.435V200ZM103.721 200H105.007V201.286H103.721V200ZM103.721 198.714H105.007V200H103.721V198.714ZM105.007 198.714H106.292V200H105.007V198.714ZM105.007 200H106.292V201.286H105.007V200ZM102.435 198.714H103.721V200H102.435V198.714Z" fill="white"/>
<g filter="url(#filter1_dd_0_1)">
<rect x="125" y="121.344" width="164" height="163" rx="81.5" fill="url(#paint2_linear_0_1)"/>
</g>
<g filter="url(#filter2_d_0_1)">
<path d="M153 203.344C153 173.52 177.177 149.344 207 149.344V149.344C236.823 149.344 261 173.52 261 203.344V203.344C261 233.167 236.823 257.344 207 257.344V257.344C177.177 257.344 153 233.167 153 203.344V203.344Z" fill="#3F3C37"/>
<path d="M207 256.844C177.453 256.844 153.5 232.891 153.5 203.344C153.5 173.797 177.453 149.844 207 149.844C236.547 149.844 260.5 173.797 260.5 203.344C260.5 232.891 236.547 256.844 207 256.844Z" stroke="url(#paint3_linear_0_1)"/>
</g>
<defs>
<filter id="filter0_d_0_1" x="0" y="0.343842" width="414" height="414" filterUnits="userSpaceOnUse" color-interpolation-filters="sRGB">
<feFlood flood-opacity="0" result="BackgroundImageFix"/>
<feColorMatrix in="SourceAlpha" type="matrix" values="0 0 0 0 0 0 0 0 0 0 0 0 0 0 0 0 0 0 127 0" result="hardAlpha"/>
<feOffset dy="4"/>
<feGaussianBlur stdDeviation="2"/>
<feColorMatrix type="matrix" values="0 0 0 0 0 0 0 0 0 0 0 0 0 0 0 0 0 0 0.25 0"/>
<feBlend mode="normal" in2="BackgroundImageFix" result="effect1_dropShadow_0_1"/>
<feBlend mode="normal" in="SourceGraphic" in2="effect1_dropShadow_0_1" result="shape"/>
</filter>
<filter id="filter1_dd_0_1" x="119" y="113.344" width="176" height="179" filterUnits="userSpaceOnUse" color-interpolation-filters="sRGB">
<feFlood flood-opacity="0" result="BackgroundImageFix"/>
<feColorMatrix in="SourceAlpha" type="matrix" values="0 0 0 0 0 0 0 0 0 0 0 0 0 0 0 0 0 0 127 0" result="hardAlpha"/>
<feOffset dx="2" dy="4"/>
<feGaussianBlur stdDeviation="2"/>
<feColorMatrix type="matrix" values="0 0 0 0 0.105882 0 0 0 0 0.101961 0 0 0 0 0.0823529 0 0 0 1 0"/>
<feBlend mode="normal" in2="BackgroundImageFix" result="effect1_dropShadow_0_1"/>
<feColorMatrix in="SourceAlpha" type="matrix" values="0 0 0 0 0 0 0 0 0 0 0 0 0 0 0 0 0 0 127 0" result="hardAlpha"/>
<feOffset dx="-2" dy="-4"/>
<feGaussianBlur stdDeviation="2"/>
<feColorMatrix type="matrix" values="0 0 0 0 0.243137 0 0 0 0 0.231373 0 0 0 0 0.211765 0 0 0 1 0"/>
<feBlend mode="normal" in2="effect1_dropShadow_0_1" result="effect2_dropShadow_0_1"/>
<feBlend mode="normal" in="SourceGraphic" in2="effect2_dropShadow_0_1" result="shape"/>
</filter>
<filter id="filter2_d_0_1" x="140" y="144.344" width="134" height="134" filterUnits="userSpaceOnUse" color-interpolation-filters="sRGB">
<feFlood flood-opacity="0" result="BackgroundImageFix"/>
<feColorMatrix in="SourceAlpha" type="matrix" values="0 0 0 0 0 0 0 0 0 0 0 0 0 0 0 0 0 0 127 0" result="hardAlpha"/>
<feOffset dy="8"/>
<feGaussianBlur stdDeviation="6.5"/>
<feColorMatrix type="matrix" values="0 0 0 0 0 0 0 0 0 0 0 0 0 0 0 0 0 0 0.6 0"/>
<feBlend mode="normal" in2="BackgroundImageFix" result="effect1_dropShadow_0_1"/>
<feBlend mode="normal" in="SourceGraphic" in2="effect1_dropShadow_0_1" result="shape"/>
</filter>
<linearGradient id="paint0_linear_0_1" x1="207" y1="0.343842" x2="207" y2="406.344" gradientUnits="userSpaceOnUse">
<stop stop-color="#3F3C37"/>
<stop offset="1" stop-color="#191813"/>
</linearGradient>
<linearGradient id="paint1_linear_0_1" x1="207" y1="0.343842" x2="207" y2="406.344" gradientUnits="userSpaceOnUse">
<stop stop-color="#181718"/>
<stop offset="1" stop-color="#201F21"/>
</linearGradient>
<linearGradient id="paint2_linear_0_1" x1="207" y1="121.344" x2="207" y2="284.344" gradientUnits="userSpaceOnUse">
<stop stop-color="#3E3B36"/>
<stop offset="1" stop-color="#1A1914"/>
</linearGradient>
<linearGradient id="paint3_linear_0_1" x1="115.667" y1="104.677" x2="115.667" y2="212.677" gradientUnits="userSpaceOnUse">
<stop stop-color="#656565"/>
<stop offset="1" stop-color="#020101"/>
</linearGradient>
</defs>
</svg>
